# xmcd CD database file
#
# Track frame offsets:
#	150
#	16895
#	34375
#	48917
#	67565
#	86210
#	103202
#	117300
#	133132
#	149675
#
# Disc length: 2157 seconds
#
# Revision: 4
# Processed by: cddbd v1.4PL0 Copyright (c) Steve Scherf et al.
# Submitted via: CDex 1.40Beta9
#
DISCID=8e086b0a
DTITLE=Francisco Cespedes - Vida Loca
DYEAR=1997
DGENRE=Vocal
TTITLE0=Todo es un misterio
TTITLE1=Como si el destino
TTITLE2=Vida Loca
TTITLE3=Remolino
TTITLE4=Pensar en ti
TTITLE5=Tu por que?
TTITLE6=Se me antoja
TTITLE7=Que hago contigo?
TTITLE8=Morena
TTITLE9=Vida, vida
EXTD=YEAR: 1997 ID3G: 28
EXTT0=
EXTT1=
EXTT2=
EXTT3=
EXTT4=
EXTT5=
EXTT6=
EXTT7=
EXTT8=
EXTT9=
PLAYORDER=
